<?xml version="1.0" encoding="utf-8" ?>
<!DOCTYPE svg PUBLIC "-//W3C//DTD SVG 1.1//EN" "http://www.w3.org/Graphics/SVG/1.1/DTD/svg11.dtd">
<svg height="332" version="1.1" width="596" xmlns="http://www.w3.org/2000/svg">
<polygon fill="#ffffff" points="14,14 532,14 532,37 581,37 581,317 14,317 14,14" stroke="#ffffff" stroke-width="1"/>
<rect fill="none" height="23" stroke="#000000" stroke-width="1" width="518" x="14" y="14"/>
<text font-family="Dialog" font-size="12" x="19" y="27">
Frontend</text>
<rect fill="none" height="280" stroke="#000000" stroke-width="1" width="567" x="14" y="37"/>
<rect fill="#ffffff" height="88" stroke="#ffffff" stroke-width="1" width="144" x="430" y="46"/>
<rect fill="none" height="88" stroke="#000000" stroke-width="1" width="144" x="430" y="46"/>
<text font-family="Dialog" font-size="12" x="473" y="59">
FrontEnd</text>
<rect fill="#000000" height="1" stroke="#000000" stroke-width="1" width="144" x="430" y="69"/>
<rect fill="#000000" height="1" stroke="#000000" stroke-width="1" width="144" x="430" y="91"/>
<text font-family="Dialog" font-size="12" x="434" y="105">
TryProgramAnalysis()</text>
<text font-family="Dialog" font-size="12" x="434" y="121">
GetErrors()</text>
<polygon fill="#ffffff" points="22,46 212,46 212,69 261,69 261,189 22,189 22,46" stroke="#ffffff" stroke-width="1"/>
<rect fill="none" height="23" stroke="#000000" stroke-width="1" width="190" x="22" y="46"/>
<text font-family="Dialog" font-size="12" x="27" y="59">
LexicalAnalysis</text>
<rect fill="none" height="120" stroke="#000000" stroke-width="1" width="239" x="22" y="69"/>
<rect fill="#ffffff" height="67" stroke="#ffffff" stroke-width="1" width="105" x="30" y="78"/>
<rect fill="none" height="67" stroke="#000000" stroke-width="1" width="105" x="30" y="78"/>
<text font-family="Dialog" font-size="12" x="51" y="110">
ITokenizer</text>
<text font-family="Dialog" font-size="12" x="34" y="92">
&lt;&lt;interface&gt;&gt;</text>
<rect fill="#000000" height="1" stroke="#000000" stroke-width="1" width="105" x="30" y="120"/>
<text font-family="Dialog" font-size="12" x="34" y="134">
NextToken()</text>
<rect fill="#ffffff" height="104" stroke="#ffffff" stroke-width="1" width="105" x="150" y="78"/>
<rect fill="none" height="104" stroke="#000000" stroke-width="1" width="105" x="150" y="78"/>
<text font-family="Dialog" font-size="12" x="182" y="110">
IToken</text>
<text font-family="Dialog" font-size="12" x="154" y="92">
&lt;&lt;interface&gt;&gt;</text>
<rect fill="#000000" height="1" stroke="#000000" stroke-width="1" width="105" x="150" y="120"/>
<text font-family="Dialog" font-size="12" x="154" y="134">
Row()</text>
<text font-family="Dialog" font-size="12" x="154" y="150">
Col()</text>
<text font-family="Dialog" font-size="12" x="154" y="166">
Lexeme()</text>
<polygon fill="#ffffff" points="270,46 372,46 372,69 421,69 421,149 270,149 270,46" stroke="#ffffff" stroke-width="1"/>
<rect fill="none" height="23" stroke="#000000" stroke-width="1" width="102" x="270" y="46"/>
<text font-family="Dialog" font-size="12" x="275" y="59">
SyntaxAnalysis</text>
<rect fill="none" height="80" stroke="#000000" stroke-width="1" width="151" x="270" y="69"/>
<rect fill="#ffffff" height="67" stroke="#ffffff" stroke-width="1" width="105" x="278" y="78"/>
<rect fill="none" height="67" stroke="#000000" stroke-width="1" width="105" x="278" y="78"/>
<text font-family="Dialog" font-size="12" x="308" y="110">
IParser</text>
<text font-family="Dialog" font-size="12" x="282" y="92">
&lt;&lt;interface&gt;&gt;</text>
<rect fill="#000000" height="1" stroke="#000000" stroke-width="1" width="105" x="278" y="120"/>
<text font-family="Dialog" font-size="12" x="282" y="134">
Parse()</text>
<polygon fill="#ffffff" points="22,198 444,198 444,221 493,221 493,309 22,309 22,198" stroke="#ffffff" stroke-width="1"/>
<rect fill="none" height="23" stroke="#000000" stroke-width="1" width="422" x="22" y="198"/>
<text font-family="Dialog" font-size="12" x="27" y="211">
SemanticAnalysis</text>
<rect fill="none" height="88" stroke="#000000" stroke-width="1" width="471" x="22" y="221"/>
<rect fill="#ffffff" height="69" stroke="#ffffff" stroke-width="1" width="105" x="30" y="230"/>
<rect fill="none" height="69" stroke="#000000" stroke-width="1" width="105" x="30" y="230"/>
<text font-family="Dialog" font-size="12" x="36" y="243">
TypeSetBuilder</text>
<rect fill="#000000" height="1" stroke="#000000" stroke-width="1" width="105" x="30" y="253"/>
<rect fill="#000000" height="1" stroke="#000000" stroke-width="1" width="105" x="30" y="274"/>
<text font-family="Dialog" font-size="12" x="34" y="288">
BuildTypeSet()</text>
<rect fill="#ffffff" height="69" stroke="#ffffff" stroke-width="1" width="131" x="150" y="230"/>
<rect fill="none" height="69" stroke="#000000" stroke-width="1" width="131" x="150" y="230"/>
<text font-family="Dialog" font-size="12" x="155" y="243">
SymbolTableBuilder</text>
<rect fill="#000000" height="1" stroke="#000000" stroke-width="1" width="131" x="150" y="253"/>
<rect fill="#000000" height="1" stroke="#000000" stroke-width="1" width="131" x="150" y="274"/>
<text font-family="Dialog" font-size="12" x="154" y="288">
BuildSymbolTable()</text>
<rect fill="#ffffff" height="69" stroke="#ffffff" stroke-width="1" width="187" x="294" y="230"/>
<rect fill="none" height="69" stroke="#000000" stroke-width="1" width="187" x="294" y="230"/>
<text font-family="Dialog" font-size="12" x="347" y="243">
TypeChecker</text>
<rect fill="#000000" height="1" stroke="#000000" stroke-width="1" width="187" x="294" y="253"/>
<rect fill="#000000" height="1" stroke="#000000" stroke-width="1" width="187" x="294" y="274"/>
<text font-family="Dialog" font-size="12" x="298" y="288">
CheckTypesAndReferences()</text>
</svg>
