<?xml version="1.0" encoding="utf-8" ?>
<!DOCTYPE svg PUBLIC "-//W3C//DTD SVG 1.1//EN" "http://www.w3.org/Graphics/SVG/1.1/DTD/svg11.dtd">
<svg height="284" version="1.1" width="487" xmlns="http://www.w3.org/2000/svg">
<rect fill="#ffffff" height="69" stroke="#ffffff" stroke-width="1" width="111" x="49" y="158"/>
<rect fill="none" height="69" stroke="#000000" stroke-width="1" width="111" x="49" y="158"/>
<text font-family="Dialog" font-size="12" x="54" y="171">
MiniJavaScanner</text>
<rect fill="#000000" height="1" stroke="#000000" stroke-width="1" width="111" x="49" y="181"/>
<rect fill="#000000" height="1" stroke="#000000" stroke-width="1" width="111" x="49" y="202"/>
<text font-family="Dialog" font-size="12" x="53" y="216">
NextToken()</text>
<rect fill="#ffffff" height="67" stroke="#ffffff" stroke-width="1" width="105" x="49" y="14"/>
<rect fill="none" height="67" stroke="#000000" stroke-width="1" width="105" x="49" y="14"/>
<text font-family="Dialog" font-size="12" x="70" y="46">
ITokenizer</text>
<text font-family="Dialog" font-size="12" x="53" y="28">
&lt;&lt;interface&gt;&gt;</text>
<rect fill="#000000" height="1" stroke="#000000" stroke-width="1" width="105" x="49" y="56"/>
<text font-family="Dialog" font-size="12" x="53" y="70">
NextToken()</text>
<line fill="#000000" stroke="#000000" stroke-width="1" x1="113" x2="113" y1="158" y2="153"/>
<line fill="#000000" stroke="#000000" stroke-width="1" x1="113" x2="113" y1="148" y2="143"/>
<line fill="#000000" stroke="#000000" stroke-width="1" x1="113" x2="113" y1="138" y2="133"/>
<line fill="#000000" stroke="#000000" stroke-width="1" x1="113" x2="113" y1="128" y2="123"/>
<line fill="#000000" stroke="#000000" stroke-width="1" x1="113" x2="113" y1="118" y2="113"/>
<line fill="#000000" stroke="#000000" stroke-width="1" x1="113" x2="113" y1="108" y2="103"/>
<line fill="#000000" stroke="#000000" stroke-width="1" x1="113" x2="113" y1="98" y2="93"/>
<line fill="#000000" stroke="#000000" stroke-width="1" x1="113" x2="113" y1="88" y2="83"/>
<polygon fill="#ffffff" points="113,80 120,92 106,92" stroke="#ffffff" stroke-width="1"/>
<polygon fill="none" points="113,80 120,92 106,92" stroke="#000000" stroke-width="1"/>
<rect fill="#ffffff" height="120" stroke="#ffffff" stroke-width="1" width="208" x="265" y="150"/>
<rect fill="none" height="120" stroke="#000000" stroke-width="1" width="208" x="265" y="150"/>
<text font-family="Dialog" font-size="12" x="304" y="163">
ScannerInputReader</text>
<rect fill="#000000" height="1" stroke="#000000" stroke-width="1" width="208" x="265" y="173"/>
<text font-family="Dialog" font-size="12" x="269" y="187">
Row : Integer</text>
<text font-family="Dialog" font-size="12" x="269" y="203">
Col : Integer</text>
<rect fill="#000000" height="1" stroke="#000000" stroke-width="1" width="208" x="265" y="213"/>
<text font-family="Dialog" font-size="12" x="269" y="227">
Peek()</text>
<text font-family="Dialog" font-size="12" x="269" y="243">
Read()</text>
<text font-family="Dialog" font-size="12" x="269" y="259">
SkipWhiteSpaceAndComments()</text>
<line fill="#000000" stroke="#000000" stroke-width="1" x1="159" x2="164" y1="190" y2="190"/>
<line fill="#000000" stroke="#000000" stroke-width="1" x1="169" x2="174" y1="190" y2="190"/>
<line fill="#000000" stroke="#000000" stroke-width="1" x1="179" x2="184" y1="190" y2="190"/>
<line fill="#000000" stroke="#000000" stroke-width="1" x1="189" x2="194" y1="190" y2="190"/>
<line fill="#000000" stroke="#000000" stroke-width="1" x1="199" x2="204" y1="190" y2="190"/>
<line fill="#000000" stroke="#000000" stroke-width="1" x1="209" x2="214" y1="190" y2="190"/>
<line fill="#000000" stroke="#000000" stroke-width="1" x1="219" x2="224" y1="190" y2="190"/>
<line fill="#000000" stroke="#000000" stroke-width="1" x1="229" x2="234" y1="190" y2="190"/>
<line fill="#000000" stroke="#000000" stroke-width="1" x1="239" x2="244" y1="190" y2="190"/>
<line fill="#000000" stroke="#000000" stroke-width="1" x1="249" x2="254" y1="190" y2="190"/>
<line fill="#000000" stroke="#000000" stroke-width="1" x1="259" x2="264" y1="190" y2="190"/>
<line fill="#000000" stroke="#000000" stroke-width="1" x1="253" x2="265" y1="197" y2="190"/>
<line fill="#000000" stroke="#000000" stroke-width="1" x1="253" x2="265" y1="183" y2="190"/>
</svg>
