<?xml version="1.0" encoding="utf-8" ?>
<!DOCTYPE svg PUBLIC "-//W3C//DTD SVG 1.1//EN" "http://www.w3.org/Graphics/SVG/1.1/DTD/svg11.dtd">
<svg height="273" version="1.1" width="575" xmlns="http://www.w3.org/2000/svg">
<rect fill="#ffffff" height="69" stroke="#ffffff" stroke-width="1" width="105" x="14" y="190"/>
<rect fill="none" height="69" stroke="#000000" stroke-width="1" width="105" x="14" y="190"/>
<text font-family="Dialog" font-size="12" x="20" y="203">
TypeSetBuilder</text>
<rect fill="#000000" height="1" stroke="#000000" stroke-width="1" width="105" x="14" y="213"/>
<rect fill="#000000" height="1" stroke="#000000" stroke-width="1" width="105" x="14" y="234"/>
<text font-family="Dialog" font-size="12" x="18" y="248">
BuildTypeSet()</text>
<rect fill="#ffffff" height="64" stroke="#ffffff" stroke-width="1" width="104" x="222" y="14"/>
<rect fill="none" height="64" stroke="#000000" stroke-width="1" width="104" x="222" y="14"/>
<text font-family="Dialog" font-size="12" x="236" y="46">
INodeVisitor</text>
<text font-family="Dialog" font-size="12" x="226" y="28">
&lt;&lt;interface&gt;&gt;</text>
<rect fill="#000000" height="1" stroke="#000000" stroke-width="1" width="104" x="222" y="56"/>
<polygon fill="#ffffff" points="63,14 131,14 141,24 141,72 63,72 63,14" stroke="#ffffff" stroke-width="1"/>
<polyline fill="none" points="63,14 131,14 141,24 141,72 63,72 63,14" stroke="#000000" stroke-width="1"/>
<polygon fill="#b2b2b2" points="131,14 141,24 131,24 131,14" stroke="#b2b2b2" stroke-width="1"/>
<polyline fill="none" points="131,14 141,24 131,24 131,14" stroke="#000000" stroke-width="1"/>
<text font-family="Dialog" font-size="12" x="66" y="29">
From the</text>
<text font-family="Dialog" font-size="12" x="66" y="44">
support</text>
<text font-family="Dialog" font-size="12" x="66" y="59">
module</text>
<line fill="#000000" stroke="#000000" stroke-width="1" x1="142" x2="147" y1="41" y2="41"/>
<line fill="#000000" stroke="#000000" stroke-width="1" x1="152" x2="157" y1="41" y2="41"/>
<line fill="#000000" stroke="#000000" stroke-width="1" x1="162" x2="167" y1="41" y2="41"/>
<line fill="#000000" stroke="#000000" stroke-width="1" x1="172" x2="177" y1="41" y2="41"/>
<line fill="#000000" stroke="#000000" stroke-width="1" x1="182" x2="187" y1="41" y2="41"/>
<line fill="#000000" stroke="#000000" stroke-width="1" x1="192" x2="197" y1="41" y2="41"/>
<line fill="#000000" stroke="#000000" stroke-width="1" x1="202" x2="207" y1="41" y2="41"/>
<line fill="#000000" stroke="#000000" stroke-width="1" x1="212" x2="217" y1="41" y2="41"/>
<line fill="#000000" stroke="#000000" stroke-width="1" x1="118" x2="121" y1="190" y2="187"/>
<line fill="#000000" stroke="#000000" stroke-width="1" x1="124" x2="128" y1="183" y2="179"/>
<line fill="#000000" stroke="#000000" stroke-width="1" x1="131" x2="134" y1="176" y2="172"/>
<line fill="#000000" stroke="#000000" stroke-width="1" x1="138" x2="141" y1="168" y2="165"/>
<line fill="#000000" stroke="#000000" stroke-width="1" x1="145" x2="148" y1="161" y2="157"/>
<line fill="#000000" stroke="#000000" stroke-width="1" x1="151" x2="155" y1="154" y2="150"/>
<line fill="#000000" stroke="#000000" stroke-width="1" x1="158" x2="162" y1="146" y2="142"/>
<line fill="#000000" stroke="#000000" stroke-width="1" x1="165" x2="168" y1="139" y2="135"/>
<line fill="#000000" stroke="#000000" stroke-width="1" x1="172" x2="175" y1="131" y2="128"/>
<line fill="#000000" stroke="#000000" stroke-width="1" x1="179" x2="182" y1="124" y2="120"/>
<line fill="#000000" stroke="#000000" stroke-width="1" x1="185" x2="189" y1="117" y2="113"/>
<line fill="#000000" stroke="#000000" stroke-width="1" x1="192" x2="196" y1="109" y2="106"/>
<line fill="#000000" stroke="#000000" stroke-width="1" x1="199" x2="202" y1="102" y2="98"/>
<line fill="#000000" stroke="#000000" stroke-width="1" x1="206" x2="209" y1="94" y2="91"/>
<line fill="#000000" stroke="#000000" stroke-width="1" x1="213" x2="216" y1="87" y2="83"/>
<line fill="#000000" stroke="#000000" stroke-width="1" x1="219" x2="222" y1="80" y2="77"/>
<polygon fill="#ffffff" points="222,77 219,90 208,81" stroke="#ffffff" stroke-width="1"/>
<polygon fill="none" points="222,77 219,90 208,81" stroke="#000000" stroke-width="1"/>
<rect fill="#ffffff" height="69" stroke="#ffffff" stroke-width="1" width="131" x="198" y="190"/>
<rect fill="none" height="69" stroke="#000000" stroke-width="1" width="131" x="198" y="190"/>
<text font-family="Dialog" font-size="12" x="203" y="203">
SymbolTableBuilder</text>
<rect fill="#000000" height="1" stroke="#000000" stroke-width="1" width="131" x="198" y="213"/>
<rect fill="#000000" height="1" stroke="#000000" stroke-width="1" width="131" x="198" y="234"/>
<text font-family="Dialog" font-size="12" x="202" y="248">
BuildSymbolTable()</text>
<line fill="#000000" stroke="#000000" stroke-width="1" x1="286" x2="286" y1="190" y2="185"/>
<line fill="#000000" stroke="#000000" stroke-width="1" x1="286" x2="286" y1="180" y2="175"/>
<line fill="#000000" stroke="#000000" stroke-width="1" x1="286" x2="286" y1="170" y2="165"/>
<line fill="#000000" stroke="#000000" stroke-width="1" x1="286" x2="286" y1="160" y2="155"/>
<line fill="#000000" stroke="#000000" stroke-width="1" x1="286" x2="286" y1="150" y2="145"/>
<line fill="#000000" stroke="#000000" stroke-width="1" x1="286" x2="286" y1="140" y2="135"/>
<line fill="#000000" stroke="#000000" stroke-width="1" x1="286" x2="286" y1="130" y2="125"/>
<line fill="#000000" stroke="#000000" stroke-width="1" x1="286" x2="286" y1="120" y2="115"/>
<line fill="#000000" stroke="#000000" stroke-width="1" x1="286" x2="286" y1="110" y2="105"/>
<line fill="#000000" stroke="#000000" stroke-width="1" x1="286" x2="286" y1="100" y2="95"/>
<line fill="#000000" stroke="#000000" stroke-width="1" x1="286" x2="286" y1="90" y2="85"/>
<line fill="#000000" stroke="#000000" stroke-width="1" x1="286" x2="286" y1="80" y2="77"/>
<polygon fill="#ffffff" points="286,77 293,89 279,89" stroke="#ffffff" stroke-width="1"/>
<polygon fill="none" points="286,77 293,89 279,89" stroke="#000000" stroke-width="1"/>
<rect fill="#ffffff" height="69" stroke="#ffffff" stroke-width="1" width="187" x="374" y="190"/>
<rect fill="none" height="69" stroke="#000000" stroke-width="1" width="187" x="374" y="190"/>
<text font-family="Dialog" font-size="12" x="427" y="203">
TypeChecker</text>
<rect fill="#000000" height="1" stroke="#000000" stroke-width="1" width="187" x="374" y="213"/>
<rect fill="#000000" height="1" stroke="#000000" stroke-width="1" width="187" x="374" y="234"/>
<text font-family="Dialog" font-size="12" x="378" y="248">
CheckTypesAndReferences()</text>
<line fill="#000000" stroke="#000000" stroke-width="1" x1="374" x2="373" y1="190" y2="186"/>
<line fill="#000000" stroke="#000000" stroke-width="1" x1="371" x2="369" y1="181" y2="177"/>
<line fill="#000000" stroke="#000000" stroke-width="1" x1="367" x2="365" y1="172" y2="168"/>
<line fill="#000000" stroke="#000000" stroke-width="1" x1="363" x2="361" y1="163" y2="158"/>
<line fill="#000000" stroke="#000000" stroke-width="1" x1="359" x2="357" y1="154" y2="149"/>
<line fill="#000000" stroke="#000000" stroke-width="1" x1="355" x2="353" y1="145" y2="140"/>
<line fill="#000000" stroke="#000000" stroke-width="1" x1="351" x2="349" y1="135" y2="131"/>
<line fill="#000000" stroke="#000000" stroke-width="1" x1="347" x2="345" y1="126" y2="122"/>
<line fill="#000000" stroke="#000000" stroke-width="1" x1="343" x2="341" y1="117" y2="112"/>
<line fill="#000000" stroke="#000000" stroke-width="1" x1="339" x2="337" y1="108" y2="103"/>
<line fill="#000000" stroke="#000000" stroke-width="1" x1="335" x2="333" y1="99" y2="94"/>
<line fill="#000000" stroke="#000000" stroke-width="1" x1="331" x2="329" y1="89" y2="85"/>
<line fill="#000000" stroke="#000000" stroke-width="1" x1="327" x2="325" y1="80" y2="77"/>
<polygon fill="#ffffff" points="325,77 336,85 323,90" stroke="#ffffff" stroke-width="1"/>
<polygon fill="none" points="325,77 336,85 323,90" stroke="#000000" stroke-width="1"/>
</svg>
