<?xml version="1.0" encoding="utf-8" ?>
<!DOCTYPE svg PUBLIC "-//W3C//DTD SVG 1.1//EN" "http://www.w3.org/Graphics/SVG/1.1/DTD/svg11.dtd">
<svg height="396" version="1.1" width="676" xmlns="http://www.w3.org/2000/svg">
<polygon fill="#ffffff" points="14,14 612,14 612,37 661,37 661,381 14,381 14,14" stroke="#ffffff" stroke-width="1"/>
<rect fill="none" height="23" stroke="#000000" stroke-width="1" width="598" x="14" y="14"/>
<text font-family="Dialog" font-size="12" x="19" y="27">
Support</text>
<rect fill="none" height="344" stroke="#000000" stroke-width="1" width="647" x="14" y="37"/>
<polygon fill="#ffffff" points="22,46 236,46 236,69 285,69 285,221 22,221 22,46" stroke="#ffffff" stroke-width="1"/>
<rect fill="none" height="23" stroke="#000000" stroke-width="1" width="214" x="22" y="46"/>
<text font-family="Dialog" font-size="12" x="27" y="59">
AbstractSyntaxTree</text>
<rect fill="none" height="152" stroke="#000000" stroke-width="1" width="263" x="22" y="69"/>
<rect fill="#ffffff" height="67" stroke="#ffffff" stroke-width="1" width="105" x="30" y="78"/>
<rect fill="none" height="67" stroke="#000000" stroke-width="1" width="105" x="30" y="78"/>
<text font-family="Dialog" font-size="12" x="45" y="110">
INodeVisitor</text>
<text font-family="Dialog" font-size="12" x="34" y="92">
&lt;&lt;interface&gt;&gt;</text>
<rect fill="#000000" height="1" stroke="#000000" stroke-width="1" width="105" x="30" y="120"/>
<rect fill="#ffffff" height="67" stroke="#ffffff" stroke-width="1" width="136" x="142" y="78"/>
<rect fill="none" height="67" stroke="#000000" stroke-width="1" width="136" x="142" y="78"/>
<text font-family="Dialog" font-size="12" x="157" y="110">
ISyntaxTreeNode</text>
<text font-family="Dialog" font-size="12" x="162" y="92">
&lt;&lt;interface&gt;&gt;</text>
<rect fill="#000000" height="1" stroke="#000000" stroke-width="1" width="136" x="142" y="120"/>
<text font-family="Dialog" font-size="12" x="146" y="134">
Accept(INodeVisitor)</text>
<rect fill="#ffffff" height="64" stroke="#ffffff" stroke-width="1" width="104" x="30" y="150"/>
<rect fill="none" height="64" stroke="#000000" stroke-width="1" width="104" x="30" y="150"/>
<text font-family="Dialog" font-size="12" x="46" y="182">
IExpression</text>
<text font-family="Dialog" font-size="12" x="34" y="164">
&lt;&lt;interface&gt;&gt;</text>
<rect fill="#000000" height="1" stroke="#000000" stroke-width="1" width="104" x="30" y="192"/>
<rect fill="#ffffff" height="64" stroke="#ffffff" stroke-width="1" width="104" x="142" y="150"/>
<rect fill="none" height="64" stroke="#000000" stroke-width="1" width="104" x="142" y="150"/>
<text font-family="Dialog" font-size="12" x="159" y="182">
IStatement</text>
<text font-family="Dialog" font-size="12" x="146" y="164">
&lt;&lt;interface&gt;&gt;</text>
<rect fill="#000000" height="1" stroke="#000000" stroke-width="1" width="104" x="142" y="192"/>
<rect fill="#ffffff" height="64" stroke="#ffffff" stroke-width="1" width="104" x="30" y="262"/>
<rect fill="none" height="64" stroke="#000000" stroke-width="1" width="104" x="30" y="262"/>
<text font-family="Dialog" font-size="12" x="37" y="294">
IErrorReporter</text>
<text font-family="Dialog" font-size="12" x="34" y="276">
&lt;&lt;interface&gt;&gt;</text>
<rect fill="#000000" height="1" stroke="#000000" stroke-width="1" width="104" x="30" y="304"/>
<rect fill="#ffffff" height="72" stroke="#ffffff" stroke-width="1" width="96" x="166" y="262"/>
<rect fill="none" height="72" stroke="#000000" stroke-width="1" width="96" x="166" y="262"/>
<text font-family="Dialog" font-size="12" x="178" y="275">
MiniJavaInfo</text>
<rect fill="#000000" height="1" stroke="#000000" stroke-width="1" width="96" x="166" y="285"/>
<rect fill="#000000" height="1" stroke="#000000" stroke-width="1" width="96" x="166" y="309"/>
<polygon fill="#ffffff" points="294,46 604,46 604,69 653,69 653,373 294,373 294,46" stroke="#ffffff" stroke-width="1"/>
<rect fill="none" height="23" stroke="#000000" stroke-width="1" width="310" x="294" y="46"/>
<text font-family="Dialog" font-size="12" x="299" y="59">
SymbolTable</text>
<rect fill="none" height="304" stroke="#000000" stroke-width="1" width="359" x="294" y="69"/>
<rect fill="#ffffff" height="117" stroke="#ffffff" stroke-width="1" width="117" x="302" y="78"/>
<rect fill="none" height="117" stroke="#000000" stroke-width="1" width="117" x="302" y="78"/>
<text font-family="Dialog" font-size="12" x="339" y="110">
IScope</text>
<text font-family="Dialog" font-size="12" x="312" y="92">
&lt;&lt;interface&gt;&gt;</text>
<rect fill="#000000" height="1" stroke="#000000" stroke-width="1" width="117" x="302" y="120"/>
<text font-family="Dialog" font-size="12" x="306" y="134">
ResolveMethod()</text>
<text font-family="Dialog" font-size="12" x="306" y="150">
ResolveVariable()</text>
<text font-family="Dialog" font-size="12" x="306" y="166">
ResolveType()</text>
<text font-family="Dialog" font-size="12" x="306" y="182">
EnclosingScope()</text>
<rect fill="#ffffff" height="67" stroke="#ffffff" stroke-width="1" width="106" x="430" y="78"/>
<rect fill="none" height="67" stroke="#000000" stroke-width="1" width="106" x="430" y="78"/>
<text font-family="Dialog" font-size="12" x="436" y="110">
IVariableScope</text>
<text font-family="Dialog" font-size="12" x="435" y="92">
&lt;&lt;interface&gt;&gt;</text>
<rect fill="#000000" height="1" stroke="#000000" stroke-width="1" width="106" x="430" y="120"/>
<text font-family="Dialog" font-size="12" x="434" y="134">
DefineVariable()</text>
<rect fill="#ffffff" height="69" stroke="#ffffff" stroke-width="1" width="105" x="502" y="294"/>
<rect fill="none" height="69" stroke="#000000" stroke-width="1" width="105" x="502" y="294"/>
<text font-family="Dialog" font-size="12" x="532" y="307">
Symbol</text>
<rect fill="#000000" height="1" stroke="#000000" stroke-width="1" width="105" x="502" y="317"/>
<rect fill="#000000" height="1" stroke="#000000" stroke-width="1" width="105" x="502" y="339"/>
<rect fill="#ffffff" height="104" stroke="#ffffff" stroke-width="1" width="176" x="302" y="198"/>
<rect fill="none" height="104" stroke="#000000" stroke-width="1" width="176" x="302" y="198"/>
<text font-family="Dialog" font-size="12" x="351" y="211">
SymbolTable</text>
<rect fill="#000000" height="1" stroke="#000000" stroke-width="1" width="176" x="302" y="221"/>
<text font-family="Dialog" font-size="12" x="306" y="235">
GlobalScope : GlobalScope</text>
<rect fill="#000000" height="1" stroke="#000000" stroke-width="1" width="176" x="302" y="253"/>
<text font-family="Dialog" font-size="12" x="306" y="267">
ResolveType()</text>
<text font-family="Dialog" font-size="12" x="306" y="283">
ResolveSurroundingClass()</text>
<rect fill="#ffffff" height="67" stroke="#ffffff" stroke-width="1" width="105" x="542" y="78"/>
<rect fill="none" height="67" stroke="#000000" stroke-width="1" width="105" x="542" y="78"/>
<text font-family="Dialog" font-size="12" x="550" y="110">
IMethodScope</text>
<text font-family="Dialog" font-size="12" x="546" y="92">
&lt;&lt;interface&gt;&gt;</text>
<rect fill="#000000" height="1" stroke="#000000" stroke-width="1" width="105" x="542" y="120"/>
<text font-family="Dialog" font-size="12" x="546" y="134">
DefineMethod()</text>
<rect fill="#ffffff" height="67" stroke="#ffffff" stroke-width="1" width="105" x="542" y="150"/>
<rect fill="none" height="67" stroke="#000000" stroke-width="1" width="105" x="542" y="150"/>
<text font-family="Dialog" font-size="12" x="559" y="182">
ITypeScope</text>
<text font-family="Dialog" font-size="12" x="546" y="164">
&lt;&lt;interface&gt;&gt;</text>
<rect fill="#000000" height="1" stroke="#000000" stroke-width="1" width="105" x="542" y="192"/>
<text font-family="Dialog" font-size="12" x="546" y="206">
DefineType()</text>
<rect fill="#ffffff" height="64" stroke="#ffffff" stroke-width="1" width="104" x="542" y="222"/>
<rect fill="none" height="64" stroke="#000000" stroke-width="1" width="104" x="542" y="222"/>
<text font-family="Dialog" font-size="12" x="578" y="254">
IType</text>
<text font-family="Dialog" font-size="12" x="546" y="236">
&lt;&lt;interface&gt;&gt;</text>
<rect fill="#000000" height="1" stroke="#000000" stroke-width="1" width="104" x="542" y="264"/>
</svg>
