<?xml version="1.0" encoding="utf-8" ?>
<!DOCTYPE svg PUBLIC "-//W3C//DTD SVG 1.1//EN" "http://www.w3.org/Graphics/SVG/1.1/DTD/svg11.dtd">
<svg height="489" version="1.1" width="891" xmlns="http://www.w3.org/2000/svg">
<rect fill="#ffffff" height="67" stroke="#ffffff" stroke-width="1" width="105" x="590" y="14"/>
<rect fill="none" height="67" stroke="#000000" stroke-width="1" width="105" x="590" y="14"/>
<text font-family="Dialog" font-size="12" x="620" y="46">
IParser</text>
<text font-family="Dialog" font-size="12" x="594" y="28">
&lt;&lt;interface&gt;&gt;</text>
<rect fill="#000000" height="1" stroke="#000000" stroke-width="1" width="105" x="590" y="56"/>
<text font-family="Dialog" font-size="12" x="594" y="70">
Parse()</text>
<rect fill="#ffffff" height="101" stroke="#ffffff" stroke-width="1" width="190" x="414" y="374"/>
<rect fill="none" height="101" stroke="#000000" stroke-width="1" width="190" x="414" y="374"/>
<text font-family="Dialog" font-size="12" x="473" y="387">
ParserBase</text>
<rect fill="#000000" height="1" stroke="#000000" stroke-width="1" width="190" x="414" y="397"/>
<text font-family="Dialog" font-size="12" x="418" y="411">
ParsingFailed : boolean</text>
<text font-family="Dialog" font-size="12" x="418" y="427">
Input : IParserInputReader</text>
<text font-family="Dialog" font-size="12" x="418" y="443">
ErrorRepoter : IErrorReporter</text>
<rect fill="#000000" height="1" stroke="#000000" stroke-width="1" width="190" x="414" y="453"/>
<rect fill="#ffffff" height="69" stroke="#ffffff" stroke-width="1" width="105" x="598" y="230"/>
<rect fill="none" height="69" stroke="#000000" stroke-width="1" width="105" x="598" y="230"/>
<text font-family="Dialog" font-size="12" x="630" y="243">
Parser</text>
<rect fill="#000000" height="1" stroke="#000000" stroke-width="1" width="105" x="598" y="253"/>
<rect fill="#000000" height="1" stroke="#000000" stroke-width="1" width="105" x="598" y="274"/>
<text font-family="Dialog" font-size="12" x="602" y="288">
Parse()</text>
<line fill="#000000" stroke="#000000" stroke-width="1" x1="654" x2="654" y1="230" y2="225"/>
<line fill="#000000" stroke="#000000" stroke-width="1" x1="654" x2="654" y1="220" y2="215"/>
<line fill="#000000" stroke="#000000" stroke-width="1" x1="654" x2="654" y1="210" y2="205"/>
<line fill="#000000" stroke="#000000" stroke-width="1" x1="654" x2="654" y1="200" y2="195"/>
<line fill="#000000" stroke="#000000" stroke-width="1" x1="654" x2="654" y1="190" y2="185"/>
<line fill="#000000" stroke="#000000" stroke-width="1" x1="654" x2="654" y1="180" y2="175"/>
<line fill="#000000" stroke="#000000" stroke-width="1" x1="654" x2="654" y1="170" y2="165"/>
<line fill="#000000" stroke="#000000" stroke-width="1" x1="654" x2="654" y1="160" y2="155"/>
<line fill="#000000" stroke="#000000" stroke-width="1" x1="654" x2="654" y1="150" y2="145"/>
<line fill="#000000" stroke="#000000" stroke-width="1" x1="654" x2="654" y1="140" y2="135"/>
<line fill="#000000" stroke="#000000" stroke-width="1" x1="654" x2="654" y1="130" y2="125"/>
<line fill="#000000" stroke="#000000" stroke-width="1" x1="654" x2="654" y1="120" y2="115"/>
<line fill="#000000" stroke="#000000" stroke-width="1" x1="654" x2="654" y1="110" y2="105"/>
<line fill="#000000" stroke="#000000" stroke-width="1" x1="654" x2="654" y1="100" y2="95"/>
<line fill="#000000" stroke="#000000" stroke-width="1" x1="654" x2="654" y1="90" y2="85"/>
<polygon fill="#ffffff" points="654,80 661,92 647,92" stroke="#ffffff" stroke-width="1"/>
<polygon fill="none" points="654,80 661,92 647,92" stroke="#000000" stroke-width="1"/>
<polyline fill="none" points="603,298 603,374" stroke="#000000" stroke-width="1"/>
<polygon fill="#ffffff" points="603,374 596,362 610,362" stroke="#ffffff" stroke-width="1"/>
<polygon fill="none" points="603,374 596,362 610,362" stroke="#000000" stroke-width="1"/>
<rect fill="#ffffff" height="69" stroke="#ffffff" stroke-width="1" width="119" x="758" y="230"/>
<rect fill="none" height="69" stroke="#000000" stroke-width="1" width="119" x="758" y="230"/>
<text font-family="Dialog" font-size="12" x="763" y="243">
ExpressionParser</text>
<rect fill="#000000" height="1" stroke="#000000" stroke-width="1" width="119" x="758" y="253"/>
<rect fill="#000000" height="1" stroke="#000000" stroke-width="1" width="119" x="758" y="274"/>
<text font-family="Dialog" font-size="12" x="762" y="288">
Parse()</text>
<polyline fill="none" points="758,298 603,374" stroke="#000000" stroke-width="1"/>
<polygon fill="#ffffff" points="603,374 610,362 616,375" stroke="#ffffff" stroke-width="1"/>
<polygon fill="none" points="603,374 610,362 616,375" stroke="#000000" stroke-width="1"/>
<line fill="#000000" stroke="#000000" stroke-width="1" x1="702" x2="707" y1="238" y2="238"/>
<line fill="#000000" stroke="#000000" stroke-width="1" x1="712" x2="717" y1="238" y2="238"/>
<line fill="#000000" stroke="#000000" stroke-width="1" x1="722" x2="727" y1="238" y2="238"/>
<line fill="#000000" stroke="#000000" stroke-width="1" x1="732" x2="737" y1="238" y2="238"/>
<line fill="#000000" stroke="#000000" stroke-width="1" x1="742" x2="747" y1="238" y2="238"/>
<line fill="#000000" stroke="#000000" stroke-width="1" x1="752" x2="757" y1="238" y2="238"/>
<line fill="#000000" stroke="#000000" stroke-width="1" x1="746" x2="758" y1="245" y2="238"/>
<line fill="#000000" stroke="#000000" stroke-width="1" x1="746" x2="758" y1="231" y2="238"/>
<rect fill="#ffffff" height="67" stroke="#ffffff" stroke-width="1" width="110" x="358" y="14"/>
<rect fill="none" height="67" stroke="#000000" stroke-width="1" width="110" x="358" y="14"/>
<text font-family="Dialog" font-size="12" x="363" y="46">
IValueListParser</text>
<text font-family="Dialog" font-size="12" x="365" y="28">
&lt;&lt;interface&gt;&gt;</text>
<rect fill="#000000" height="1" stroke="#000000" stroke-width="1" width="110" x="358" y="56"/>
<text font-family="Dialog" font-size="12" x="362" y="70">
ParseList()</text>
<rect fill="#ffffff" height="67" stroke="#ffffff" stroke-width="1" width="105" x="478" y="14"/>
<rect fill="none" height="67" stroke="#000000" stroke-width="1" width="105" x="478" y="14"/>
<text font-family="Dialog" font-size="12" x="498" y="46">
IListParser</text>
<text font-family="Dialog" font-size="12" x="482" y="28">
&lt;&lt;interface&gt;&gt;</text>
<rect fill="#000000" height="1" stroke="#000000" stroke-width="1" width="105" x="478" y="56"/>
<text font-family="Dialog" font-size="12" x="482" y="70">
ParseList()</text>
<rect fill="#ffffff" height="69" stroke="#ffffff" stroke-width="1" width="184" x="334" y="206"/>
<rect fill="none" height="69" stroke="#000000" stroke-width="1" width="184" x="334" y="206"/>
<text font-family="Dialog" font-size="12" x="339" y="219">
CommaSeparatedListParser</text>
<rect fill="#000000" height="1" stroke="#000000" stroke-width="1" width="184" x="334" y="229"/>
<rect fill="#000000" height="1" stroke="#000000" stroke-width="1" width="184" x="334" y="250"/>
<text font-family="Dialog" font-size="12" x="338" y="264">
ParseList()</text>
<line fill="#000000" stroke="#000000" stroke-width="1" x1="398" x2="398" y1="206" y2="201"/>
<line fill="#000000" stroke="#000000" stroke-width="1" x1="398" x2="398" y1="196" y2="191"/>
<line fill="#000000" stroke="#000000" stroke-width="1" x1="398" x2="398" y1="186" y2="181"/>
<line fill="#000000" stroke="#000000" stroke-width="1" x1="398" x2="398" y1="176" y2="171"/>
<line fill="#000000" stroke="#000000" stroke-width="1" x1="398" x2="398" y1="166" y2="161"/>
<line fill="#000000" stroke="#000000" stroke-width="1" x1="398" x2="398" y1="156" y2="151"/>
<line fill="#000000" stroke="#000000" stroke-width="1" x1="398" x2="398" y1="146" y2="141"/>
<line fill="#000000" stroke="#000000" stroke-width="1" x1="398" x2="398" y1="136" y2="131"/>
<line fill="#000000" stroke="#000000" stroke-width="1" x1="398" x2="398" y1="126" y2="121"/>
<line fill="#000000" stroke="#000000" stroke-width="1" x1="398" x2="398" y1="116" y2="111"/>
<line fill="#000000" stroke="#000000" stroke-width="1" x1="398" x2="398" y1="106" y2="101"/>
<line fill="#000000" stroke="#000000" stroke-width="1" x1="398" x2="398" y1="96" y2="91"/>
<line fill="#000000" stroke="#000000" stroke-width="1" x1="398" x2="398" y1="86" y2="81"/>
<polygon fill="#ffffff" points="398,80 405,92 391,92" stroke="#ffffff" stroke-width="1"/>
<polygon fill="none" points="398,80 405,92 391,92" stroke="#000000" stroke-width="1"/>
<rect fill="#ffffff" height="69" stroke="#ffffff" stroke-width="1" width="105" x="526" y="134"/>
<rect fill="none" height="69" stroke="#000000" stroke-width="1" width="105" x="526" y="134"/>
<text font-family="Dialog" font-size="12" x="547" y="147">
ListParser</text>
<rect fill="#000000" height="1" stroke="#000000" stroke-width="1" width="105" x="526" y="157"/>
<rect fill="#000000" height="1" stroke="#000000" stroke-width="1" width="105" x="526" y="178"/>
<text font-family="Dialog" font-size="12" x="530" y="192">
ParseList()</text>
<line fill="#000000" stroke="#000000" stroke-width="1" x1="534" x2="534" y1="134" y2="129"/>
<line fill="#000000" stroke="#000000" stroke-width="1" x1="534" x2="534" y1="124" y2="119"/>
<line fill="#000000" stroke="#000000" stroke-width="1" x1="534" x2="534" y1="114" y2="109"/>
<line fill="#000000" stroke="#000000" stroke-width="1" x1="534" x2="534" y1="104" y2="99"/>
<line fill="#000000" stroke="#000000" stroke-width="1" x1="534" x2="534" y1="94" y2="89"/>
<line fill="#000000" stroke="#000000" stroke-width="1" x1="534" x2="534" y1="84" y2="80"/>
<polygon fill="#ffffff" points="534,80 541,92 527,92" stroke="#ffffff" stroke-width="1"/>
<polygon fill="none" points="534,80 541,92 527,92" stroke="#000000" stroke-width="1"/>
<polyline fill="none" points="421,274 421,374" stroke="#000000" stroke-width="1"/>
<polygon fill="#ffffff" points="421,374 414,362 428,362" stroke="#ffffff" stroke-width="1"/>
<polygon fill="none" points="421,374 414,362 428,362" stroke="#000000" stroke-width="1"/>
<polyline fill="none" points="526,202 526,374" stroke="#000000" stroke-width="1"/>
<polygon fill="#ffffff" points="526,374 519,362 533,362" stroke="#ffffff" stroke-width="1"/>
<polygon fill="none" points="526,374 519,362 533,362" stroke="#000000" stroke-width="1"/>
<ellipse cx="528" cy="288" fill="#000000" rx="0.5" ry="0.5" stroke="#000000" stroke-width="1"/>
<ellipse cx="529" cy="289" fill="#ffffff" rx="-0.5" ry="-0.5" stroke="#ffffff" stroke-width="1"/>
<line fill="#000000" stroke="#000000" stroke-width="1" x1="614" x2="614" y1="230" y2="225"/>
<line fill="#000000" stroke="#000000" stroke-width="1" x1="614" x2="614" y1="220" y2="215"/>
<line fill="#000000" stroke="#000000" stroke-width="1" x1="614" x2="614" y1="210" y2="205"/>
<line fill="#000000" stroke="#000000" stroke-width="1" x1="621" x2="614" y1="214" y2="202"/>
<line fill="#000000" stroke="#000000" stroke-width="1" x1="607" x2="614" y1="214" y2="202"/>
<line fill="#000000" stroke="#000000" stroke-width="1" x1="598" x2="593" y1="242" y2="242"/>
<line fill="#000000" stroke="#000000" stroke-width="1" x1="588" x2="583" y1="242" y2="242"/>
<line fill="#000000" stroke="#000000" stroke-width="1" x1="578" x2="573" y1="242" y2="242"/>
<line fill="#000000" stroke="#000000" stroke-width="1" x1="568" x2="563" y1="242" y2="242"/>
<line fill="#000000" stroke="#000000" stroke-width="1" x1="558" x2="553" y1="242" y2="242"/>
<line fill="#000000" stroke="#000000" stroke-width="1" x1="548" x2="543" y1="242" y2="242"/>
<line fill="#000000" stroke="#000000" stroke-width="1" x1="538" x2="533" y1="242" y2="242"/>
<line fill="#000000" stroke="#000000" stroke-width="1" x1="528" x2="523" y1="242" y2="242"/>
<line fill="#000000" stroke="#000000" stroke-width="1" x1="518" x2="517" y1="242" y2="242"/>
<line fill="#000000" stroke="#000000" stroke-width="1" x1="529" x2="517" y1="235" y2="242"/>
<line fill="#000000" stroke="#000000" stroke-width="1" x1="529" x2="517" y1="249" y2="242"/>
<rect fill="#ffffff" height="147" stroke="#ffffff" stroke-width="1" width="288" x="14" y="150"/>
<rect fill="none" height="147" stroke="#000000" stroke-width="1" width="288" x="14" y="150"/>
<text font-family="Dialog" font-size="12" x="97" y="182">
IParserInputReader</text>
<text font-family="Dialog" font-size="12" x="110" y="164">
&lt;&lt;interface&gt;&gt;</text>
<rect fill="#000000" height="1" stroke="#000000" stroke-width="1" width="288" x="14" y="192"/>
<text font-family="Dialog" font-size="12" x="18" y="206">
Peek()</text>
<text font-family="Dialog" font-size="12" x="18" y="222">
PeekForward(int)</text>
<text font-family="Dialog" font-size="12" x="18" y="238">
MatchAndConsume&lt;TExpectedType&gt;(string)</text>
<text font-family="Dialog" font-size="12" x="18" y="254">
MatchAndConsume&lt;TExpectedType&gt;()</text>
<text font-family="Dialog" font-size="12" x="18" y="270">
NextTokenIs&lt;TExpectedType&gt;(string)</text>
<text font-family="Dialog" font-size="12" x="18" y="286">
NextTokenOneOf&lt;TExpectedType&gt;(string[])</text>
<rect fill="#ffffff" height="67" stroke="#ffffff" stroke-width="1" width="128" x="222" y="358"/>
<rect fill="none" height="67" stroke="#000000" stroke-width="1" width="128" x="222" y="358"/>
<text font-family="Dialog" font-size="12" x="227" y="371">
ParserInputReader</text>
<rect fill="#000000" height="1" stroke="#000000" stroke-width="1" width="128" x="222" y="381"/>
<rect fill="#000000" height="1" stroke="#000000" stroke-width="1" width="128" x="222" y="402"/>
<line fill="#000000" stroke="#000000" stroke-width="1" x1="598" x2="594" y1="298" y2="299"/>
<line fill="#000000" stroke="#000000" stroke-width="1" x1="589" x2="584" y1="300" y2="301"/>
<line fill="#000000" stroke="#000000" stroke-width="1" x1="579" x2="574" y1="302" y2="303"/>
<line fill="#000000" stroke="#000000" stroke-width="1" x1="569" x2="564" y1="305" y2="306"/>
<line fill="#000000" stroke="#000000" stroke-width="1" x1="560" x2="555" y1="307" y2="308"/>
<line fill="#000000" stroke="#000000" stroke-width="1" x1="550" x2="545" y1="309" y2="310"/>
<line fill="#000000" stroke="#000000" stroke-width="1" x1="540" x2="535" y1="312" y2="313"/>
<line fill="#000000" stroke="#000000" stroke-width="1" x1="530" x2="526" y1="314" y2="315"/>
<line fill="#000000" stroke="#000000" stroke-width="1" x1="521" x2="516" y1="316" y2="317"/>
<line fill="#000000" stroke="#000000" stroke-width="1" x1="511" x2="506" y1="319" y2="320"/>
<line fill="#000000" stroke="#000000" stroke-width="1" x1="501" x2="496" y1="321" y2="322"/>
<line fill="#000000" stroke="#000000" stroke-width="1" x1="492" x2="487" y1="323" y2="324"/>
<line fill="#000000" stroke="#000000" stroke-width="1" x1="482" x2="477" y1="326" y2="327"/>
<line fill="#000000" stroke="#000000" stroke-width="1" x1="472" x2="467" y1="328" y2="329"/>
<line fill="#000000" stroke="#000000" stroke-width="1" x1="462" x2="457" y1="330" y2="331"/>
<line fill="#000000" stroke="#000000" stroke-width="1" x1="453" x2="448" y1="333" y2="334"/>
<line fill="#000000" stroke="#000000" stroke-width="1" x1="443" x2="438" y1="335" y2="336"/>
<line fill="#000000" stroke="#000000" stroke-width="1" x1="433" x2="428" y1="337" y2="339"/>
<line fill="#000000" stroke="#000000" stroke-width="1" x1="423" x2="419" y1="340" y2="341"/>
<line fill="#000000" stroke="#000000" stroke-width="1" x1="414" x2="409" y1="342" y2="343"/>
<line fill="#000000" stroke="#000000" stroke-width="1" x1="404" x2="399" y1="344" y2="346"/>
<line fill="#000000" stroke="#000000" stroke-width="1" x1="394" x2="389" y1="347" y2="348"/>
<line fill="#000000" stroke="#000000" stroke-width="1" x1="385" x2="380" y1="349" y2="350"/>
<line fill="#000000" stroke="#000000" stroke-width="1" x1="375" x2="370" y1="351" y2="353"/>
<line fill="#000000" stroke="#000000" stroke-width="1" x1="365" x2="360" y1="354" y2="355"/>
<line fill="#000000" stroke="#000000" stroke-width="1" x1="355" x2="350" y1="356" y2="357"/>
<line fill="#000000" stroke="#000000" stroke-width="1" x1="359" x2="349" y1="348" y2="358"/>
<line fill="#000000" stroke="#000000" stroke-width="1" x1="362" x2="349" y1="361" y2="358"/>
<line fill="#000000" stroke="#000000" stroke-width="1" x1="414" x2="410" y1="374" y2="372"/>
<line fill="#000000" stroke="#000000" stroke-width="1" x1="406" x2="402" y1="369" y2="366"/>
<line fill="#000000" stroke="#000000" stroke-width="1" x1="398" x2="394" y1="363" y2="360"/>
<line fill="#000000" stroke="#000000" stroke-width="1" x1="390" x2="386" y1="357" y2="355"/>
<line fill="#000000" stroke="#000000" stroke-width="1" x1="382" x2="377" y1="352" y2="349"/>
<line fill="#000000" stroke="#000000" stroke-width="1" x1="373" x2="369" y1="346" y2="343"/>
<line fill="#000000" stroke="#000000" stroke-width="1" x1="365" x2="361" y1="340" y2="337"/>
<line fill="#000000" stroke="#000000" stroke-width="1" x1="357" x2="353" y1="335" y2="332"/>
<line fill="#000000" stroke="#000000" stroke-width="1" x1="349" x2="344" y1="329" y2="326"/>
<line fill="#000000" stroke="#000000" stroke-width="1" x1="340" x2="336" y1="323" y2="320"/>
<line fill="#000000" stroke="#000000" stroke-width="1" x1="332" x2="328" y1="318" y2="315"/>
<line fill="#000000" stroke="#000000" stroke-width="1" x1="324" x2="320" y1="312" y2="309"/>
<line fill="#000000" stroke="#000000" stroke-width="1" x1="316" x2="311" y1="306" y2="303"/>
<line fill="#000000" stroke="#000000" stroke-width="1" x1="307" x2="303" y1="300" y2="298"/>
<line fill="#000000" stroke="#000000" stroke-width="1" x1="314" x2="301" y1="297" y2="296"/>
<line fill="#000000" stroke="#000000" stroke-width="1" x1="306" x2="301" y1="308" y2="296"/>
<line fill="#000000" stroke="#000000" stroke-width="1" x1="254" x2="254" y1="358" y2="353"/>
<line fill="#000000" stroke="#000000" stroke-width="1" x1="254" x2="254" y1="348" y2="343"/>
<line fill="#000000" stroke="#000000" stroke-width="1" x1="254" x2="254" y1="338" y2="333"/>
<line fill="#000000" stroke="#000000" stroke-width="1" x1="254" x2="254" y1="328" y2="323"/>
<line fill="#000000" stroke="#000000" stroke-width="1" x1="254" x2="254" y1="318" y2="313"/>
<line fill="#000000" stroke="#000000" stroke-width="1" x1="254" x2="254" y1="308" y2="303"/>
<line fill="#000000" stroke="#000000" stroke-width="1" x1="254" x2="254" y1="298" y2="296"/>
<polygon fill="#ffffff" points="254,296 261,308 247,308" stroke="#ffffff" stroke-width="1"/>
<polygon fill="none" points="254,296 261,308 247,308" stroke="#000000" stroke-width="1"/>
</svg>
